<svg width="100" height="100" viewBox="0 0 100 100" fill="none" xmlns="http://www.w3.org/2000/svg">
<style>.bg{fill:#fff}.fg{fill:#000}.fs{stroke:#fff}@media(prefers-color-scheme:dark){.bg{fill:#000}.fg{fill:#fff}.fs{stroke:#000}}</style>
<rect class="bg" width="100" height="100" rx="21"/>
<path class="fg" d="M32.5 20H50V36.25C50 38.2391 50.6914 40.1468 51.9221 41.5533C53.1528 42.9598 54.822 43.75 56.5625 43.75H74.0625V72.5C74.0625 74.4891 73.3711 76.3968 72.1404 77.8033C70.9097 79.2098 69.2405 80 67.5 80H32.5C30.7595 80 29.0903 79.2098 27.8596 77.8033C26.6289 76.3968 25.9375 74.4891 25.9375 72.5V27.5C25.9375 25.5109 26.6289 23.6032 27.8596 22.1967C29.0903 20.7902 30.7595 20 32.5 20Z"/>
<path class="fg" d="M54.375 20L74.0625 38.75H56.5625C55.9823 38.75 55.4259 38.4866 55.0157 38.0178C54.6055 37.5489 54.375 36.913 54.375 36.25V20Z"/>
<path class="fs" d="M37.6953 53.75L44.2578 70L50 56.7188L55.7422 70L62.3047 53.75" stroke-width="4" stroke-linecap="round" stroke-linejoin="round"/>
</svg>
