<svg width="100" height="100" viewBox="0 0 100 100" fill="none" xmlns="http://www.w3.org/2000/svg">
<rect width="100" height="100" rx="21" fill="white"/>
<path d="M50 80C66.5685 80 80 66.5685 80 50C80 33.4315 66.5685 20 50 20C33.4315 20 20 33.4315 20 50C20 66.5685 33.4315 80 50 80Z" fill="black"/>
<path d="M50 42.3334C51.8409 42.3334 53.3333 40.841 53.3333 39C53.3333 37.1591 51.8409 35.6667 50 35.6667C48.159 35.6667 46.6666 37.1591 46.6666 39C46.6666 40.841 48.159 42.3334 50 42.3334Z" fill="#DDDDDD"/>
<path d="M53.3333 49C53.3333 47.1591 51.8409 45.6667 50 45.6667C48.159 45.6667 46.6666 47.1591 46.6666 49V62.3334C46.6666 64.1743 48.159 65.6667 50 65.6667C51.8409 65.6667 53.3333 64.1743 53.3333 62.3334V49Z" fill="#DDDDDD"/>
<rect width="100" height="100" rx="21" fill="black"/>
<path d="M50 80C66.5685 80 80 66.5685 80 50C80 33.4315 66.5685 20 50 20C33.4315 20 20 33.4315 20 50C20 66.5685 33.4315 80 50 80Z" fill="white"/>
<path d="M50 42.3334C51.8409 42.3334 53.3333 40.841 53.3333 39C53.3333 37.1591 51.8409 35.6667 50 35.6667C48.159 35.6667 46.6666 37.1591 46.6666 39C46.6666 40.841 48.159 42.3334 50 42.3334Z" fill="#161616"/>
<path d="M53.3333 49C53.3333 47.1591 51.8409 45.6667 50 45.6667C48.159 45.6667 46.6666 47.1591 46.6666 49V62.3334C46.6666 64.1743 48.159 65.6667 50 65.6667C51.8409 65.6667 53.3333 64.1743 53.3333 62.3334V49Z" fill="#161616"/>
</svg>
