<svg width="100" height="149" viewBox="0 0 100 149" fill="none" xmlns="http://www.w3.org/2000/svg">
<rect y="17" width="100" height="100" rx="21" fill="black"/>
<path d="M42.6768 99H29.8936V38.3213H54.8789C61.6579 38.3213 66.8182 39.9814 70.3599 43.3018C73.9292 46.5944 75.7139 51.3258 75.7139 57.4961C75.7139 63.694 73.9292 68.4531 70.3599 71.7734C66.8182 75.0938 61.6579 76.7539 54.8789 76.7539H42.6768V99ZM42.6768 49.2783V65.7969H54.5469C57.3415 65.7969 59.4443 65.0636 60.8555 63.5972C62.2666 62.1307 62.9722 60.097 62.9722 57.4961C62.9722 54.8952 62.2666 52.8753 60.8555 51.4365C59.4443 49.9977 57.3415 49.2783 54.5469 49.2783H42.6768Z" fill="white"/>
</svg>
