<svg width="512" height="512" viewBox="0 18 100 100" fill="none" xmlns="http://www.w3.org/2000/svg">
<rect y="18" width="100" height="100" rx="21" fill="white"/>
<path d="M43.6768 99H30.8936V38.3213H55.8789C62.6579 38.3213 67.8182 39.9814 71.3599 43.3018C74.9292 46.5944 76.7139 51.3258 76.7139 57.4961C76.7139 63.694 74.9292 68.4531 71.3599 71.7734C67.8182 75.0938 62.6579 76.7539 55.8789 76.7539H43.6768V99ZM43.6768 49.2783V65.7969H55.5469C58.3415 65.7969 60.4443 65.0636 61.8555 63.5972C63.2666 62.1307 63.9722 60.097 63.9722 57.4961C63.9722 54.8952 63.2666 52.8753 61.8555 51.4365C60.4443 49.9977 58.3415 49.2783 55.5469 49.2783H43.6768Z" fill="black"/>
</svg>
