<svg width="512" height="512" viewBox="0 0 100 100" fill="none" xmlns="http://www.w3.org/2000/svg">
<rect width="100" height="100" rx="21" fill="black"/>
<path d="M15 15H30.178V18.8081H18.8402V30.0512H15V15Z" fill="white"/>
<path d="M69.822 15H85V30.0512H81.1598V18.8081H69.822V15Z" fill="white"/>
<path d="M15 69.9488H18.8402V81.1919H30.178V85H15V69.9488Z" fill="white"/>
<path d="M69.822 85H85V69.9488H81.1598V81.1919H69.822V85Z" fill="white"/>
<path d="M29.0453 35.1877L50.1133 23.1229L71.1812 35.1877L50.1133 47.2526L29.0453 35.1877Z" fill="white"/>
<path d="M26.7799 38.8908L47.6213 50.9717V75.6826L26.7799 63.6017V38.8908Z" fill="white"/>
<path d="M52.3786 50.9717L73.2201 38.8908V63.6017L52.3786 75.6826V50.9717Z" fill="white"/>
</svg>
