<svg width="32" height="32" viewBox="0 0 32 32" fill="none" xmlns="http://www.w3.org/2000/svg">
<rect width="32" height="32" fill="white"/>
<path d="M9.21875 25V6.09091H17.3807C18.7841 6.09091 20.0121 6.3679 21.0646 6.92188C22.1172 7.47585 22.9358 8.2545 23.5206 9.25781C24.1054 10.2611 24.3977 11.4337 24.3977 12.7756C24.3977 14.1297 24.0961 15.3023 23.4929 16.2933C22.8958 17.2843 22.0556 18.0476 20.9723 18.5831C19.8951 19.1186 18.6364 19.3864 17.196 19.3864H12.321V15.3977H16.1619C16.7652 15.3977 17.2791 15.2931 17.7038 15.0838C18.1347 14.8684 18.464 14.5637 18.6918 14.1697C18.9257 13.7758 19.0426 13.3111 19.0426 12.7756C19.0426 12.2339 18.9257 11.7723 18.6918 11.3906C18.464 11.0028 18.1347 10.7074 17.7038 10.5043C17.2791 10.295 16.7652 10.1903 16.1619 10.1903H14.3523V25H9.21875Z" fill="black"/>
</svg>
