<svg width="32" height="32" viewBox="0 0 32 32" fill="none" xmlns="http://www.w3.org/2000/svg">
<rect width="32" height="32" fill="black"/>
<path d="M8.21875 25V6.09091H16.3807C17.7841 6.09091 19.0121 6.3679 20.0646 6.92188C21.1172 7.47585 21.9358 8.2545 22.5206 9.25781C23.1054 10.2611 23.3977 11.4337 23.3977 12.7756C23.3977 14.1297 23.0961 15.3023 22.4929 16.2933C21.8958 17.2843 21.0556 18.0476 19.9723 18.5831C18.8951 19.1186 17.6364 19.3864 16.196 19.3864H11.321V15.3977H15.1619C15.7652 15.3977 16.2791 15.2931 16.7038 15.0838C17.1347 14.8684 17.464 14.5637 17.6918 14.1697C17.9257 13.7758 18.0426 13.3111 18.0426 12.7756C18.0426 12.2339 17.9257 11.7723 17.6918 11.3906C17.464 11.0028 17.1347 10.7074 16.7038 10.5043C16.2791 10.295 15.7652 10.1903 15.1619 10.1903H13.3523V25H8.21875Z" fill="white"/>
</svg>
