<svg width="240" height="48" viewBox="0 0 240 48" fill="none" xmlns="http://www.w3.org/2000/svg">
<path d="M4.43459e-05 47.1818V0.636368H18.3637C21.894 0.636368 24.9016 1.31061 27.3864 2.6591C29.8713 3.99243 31.7652 5.84849 33.0682 8.22728C34.3864 10.5909 35.0455 13.3182 35.0455 16.4091C35.0455 19.5 34.3788 22.2273 33.0455 24.5909C31.7122 26.9545 29.7803 28.7955 27.25 30.1136C24.7349 31.4318 21.6894 32.0909 18.1137 32.0909H6.40914V24.2045H16.5228C18.4167 24.2045 19.9773 23.8788 21.2046 23.2273C22.447 22.5606 23.3713 21.6439 23.9773 20.4773C24.5985 19.2955 24.9091 17.9394 24.9091 16.4091C24.9091 14.8636 24.5985 13.5152 23.9773 12.3636C23.3713 11.197 22.447 10.2955 21.2046 9.6591C19.9622 9.00758 18.3864 8.68182 16.4773 8.68182H9.84095V47.1818H4.43459e-05ZM38.8775 47.1818V0.636368H70.2412V8.75H48.7185V19.8409H68.6275V27.9545H48.7185V39.0682H70.3321V47.1818H38.8775ZM114.437 0.636368V47.1818H105.937L85.6869 17.8864H85.346V47.1818H75.505V0.636368H84.1414L104.232 29.9091H104.641V0.636368H114.437ZM150.871 15.6818C150.553 14.5758 150.106 13.5985 149.53 12.75C148.955 11.8864 148.25 11.1591 147.417 10.5682C146.598 9.96213 145.659 9.50001 144.598 9.18182C143.553 8.86364 142.394 8.70455 141.121 8.70455C138.742 8.70455 136.651 9.29546 134.848 10.4773C133.061 11.6591 131.667 13.3788 130.667 15.6364C129.667 17.8788 129.167 20.6212 129.167 23.8636C129.167 27.1061 129.659 29.8636 130.644 32.1364C131.629 34.4091 133.023 36.1439 134.826 37.3409C136.629 38.5227 138.758 39.1136 141.212 39.1136C143.439 39.1136 145.341 38.7197 146.917 37.9318C148.508 37.1288 149.72 36 150.553 34.5455C151.401 33.0909 151.826 31.3712 151.826 29.3864L153.826 29.6818H141.826V22.2727H161.303V28.1364C161.303 32.2273 160.439 35.7424 158.712 38.6818C156.985 41.6061 154.606 43.8636 151.576 45.4546C148.545 47.0303 145.076 47.8182 141.167 47.8182C136.803 47.8182 132.97 46.8561 129.667 44.9318C126.364 42.9924 123.788 40.2424 121.939 36.6818C120.106 33.1061 119.189 28.8636 119.189 23.9545C119.189 20.1818 119.735 16.8182 120.826 13.8636C121.932 10.8939 123.477 8.37879 125.462 6.31819C127.447 4.25758 129.758 2.6894 132.394 1.61364C135.03 0.537882 137.886 3.8147e-06 140.962 3.8147e-06C143.598 3.8147e-06 146.053 0.386368 148.326 1.1591C150.598 1.91667 152.614 2.99243 154.371 4.38637C156.144 5.78031 157.591 7.4394 158.712 9.36364C159.833 11.2727 160.553 13.3788 160.871 15.6818H150.871ZM166.135 47.1818V0.636368H197.499V8.75H175.976V19.8409H195.885V27.9545H175.976V39.0682H197.59V47.1818H166.135ZM202.763 47.1818V0.636368H221.126C224.641 0.636368 227.641 1.26516 230.126 2.52273C232.626 3.76516 234.528 5.53031 235.831 7.81819C237.149 10.0909 237.808 12.7652 237.808 15.8409C237.808 18.9318 237.141 21.5909 235.808 23.8182C234.475 26.0303 232.543 27.7273 230.013 28.9091C227.497 30.0909 224.452 30.6818 220.876 30.6818H208.581V22.7727H219.285C221.164 22.7727 222.725 22.5152 223.967 22C225.21 21.4849 226.134 20.7121 226.74 19.6818C227.361 18.6515 227.672 17.3712 227.672 15.8409C227.672 14.2955 227.361 12.9924 226.74 11.9318C226.134 10.8712 225.202 10.0682 223.944 9.52273C222.702 8.96213 221.134 8.68182 219.24 8.68182H212.603V47.1818H202.763ZM227.899 26L239.467 47.1818H228.603L217.285 26H227.899Z" fill="#747474"/>
</svg>
