<svg width="247" height="48" viewBox="0 0 247 48" fill="none" xmlns="http://www.w3.org/2000/svg">
<path d="M0 47.1818V0.636368H20.0909C23.5455 0.636368 26.5682 1.31819 29.1591 2.68182C31.75 4.04546 33.7652 5.96213 35.2045 8.43182C36.6439 10.9015 37.3636 13.7879 37.3636 17.0909C37.3636 20.4242 36.6212 23.3106 35.1364 25.75C33.6667 28.1894 31.5985 30.0682 28.9318 31.3864C26.2803 32.7046 23.1818 33.3636 19.6364 33.3636H7.63636V23.5455H17.0909C18.5758 23.5455 19.8409 23.2879 20.8864 22.7727C21.947 22.2424 22.7576 21.4924 23.3182 20.5227C23.8939 19.553 24.1818 18.4091 24.1818 17.0909C24.1818 15.7576 23.8939 14.6212 23.3182 13.6818C22.7576 12.7273 21.947 12 20.8864 11.5C19.8409 10.9849 18.5758 10.7273 17.0909 10.7273H12.6364V47.1818H0ZM40.08 47.1818V0.636368H73.6255V10.8182H52.7164V18.8182H71.8982V29H52.7164V37H73.5345V47.1818H40.08ZM118.245 0.636368V47.1818H107.7L90.8816 22.7273H90.6089V47.1818H77.9725V0.636368H88.6998L105.245 25H105.609V0.636368H118.245ZM152.53 16C152.333 15.197 152.022 14.4924 151.598 13.8864C151.174 13.2652 150.643 12.7424 150.007 12.3182C149.386 11.8788 148.659 11.553 147.825 11.3409C147.007 11.1136 146.106 11 145.121 11C142.999 11 141.189 11.5076 139.689 12.5227C138.204 13.5379 137.068 15 136.28 16.9091C135.507 18.8182 135.121 21.1212 135.121 23.8182C135.121 26.5455 135.492 28.8788 136.234 30.8182C136.977 32.7576 138.083 34.2424 139.552 35.2727C141.022 36.303 142.848 36.8182 145.03 36.8182C146.954 36.8182 148.552 36.5379 149.825 35.9773C151.113 35.4167 152.075 34.6212 152.712 33.5909C153.348 32.5606 153.666 31.3485 153.666 29.9545L155.848 30.1818H145.212V21.1818H165.848V27.6364C165.848 31.8788 164.946 35.5076 163.143 38.5227C161.356 41.5227 158.886 43.8258 155.734 45.4318C152.598 47.0227 148.999 47.8182 144.939 47.8182C140.409 47.8182 136.431 46.8561 133.007 44.9318C129.583 43.0076 126.909 40.2652 124.984 36.7046C123.075 33.1439 122.121 28.9091 122.121 24C122.121 20.1515 122.704 16.7424 123.871 13.7727C125.052 10.803 126.689 8.29546 128.78 6.25C130.871 4.1894 133.287 2.63637 136.03 1.59091C138.772 0.530306 141.712 3.8147e-06 144.848 3.8147e-06C147.606 3.8147e-06 150.166 0.393944 152.53 1.18182C154.909 1.95455 157.007 3.06061 158.825 4.5C160.659 5.92425 162.136 7.61364 163.257 9.56819C164.378 11.5227 165.06 13.6667 165.302 16H152.53ZM169.82 47.1818V0.636368H203.365V10.8182H182.456V18.8182H201.638V29H182.456V37H203.275V47.1818H169.82ZM207.712 47.1818V0.636368H227.803C231.258 0.636368 234.281 1.26516 236.872 2.52273C239.462 3.78031 241.478 5.59091 242.917 7.95455C244.356 10.3182 245.076 13.1515 245.076 16.4545C245.076 19.7879 244.334 22.5985 242.849 24.8864C241.379 27.1742 239.311 28.9015 236.644 30.0682C233.993 31.2349 230.894 31.8182 227.349 31.8182H215.349V22H224.803C226.288 22 227.553 21.8182 228.599 21.4545C229.659 21.0758 230.47 20.4773 231.031 19.6591C231.606 18.8409 231.894 17.7727 231.894 16.4545C231.894 15.1212 231.606 14.0379 231.031 13.2046C230.47 12.3561 229.659 11.7349 228.599 11.3409C227.553 10.9318 226.288 10.7273 224.803 10.7273H220.349V47.1818H207.712ZM234.985 25.8182L246.622 47.1818H232.894L221.531 25.8182H234.985Z" fill="black"/>
</svg>
