<svg width="245" height="48" viewBox="0 0 245 48" fill="none" xmlns="http://www.w3.org/2000/svg">
<path d="M2.24113e-05 47.1818V0.636368H19.2273C22.7121 0.636368 25.7197 1.31819 28.25 2.68182C30.7955 4.03031 32.7576 5.91667 34.1364 8.34091C35.5152 10.75 36.2046 13.553 36.2046 16.75C36.2046 19.9621 35.5 22.7727 34.0909 25.1818C32.697 27.5758 30.7046 29.4318 28.1137 30.75C25.5227 32.0682 22.447 32.7273 18.8864 32.7273H7.02275V23.8636H16.7955C18.4924 23.8636 19.9091 23.5682 21.0455 22.9773C22.197 22.3864 23.0682 21.5606 23.6591 20.5C24.25 19.4242 24.5455 18.1742 24.5455 16.75C24.5455 15.3106 24.25 14.0682 23.6591 13.0227C23.0682 11.9621 22.197 11.1439 21.0455 10.5682C19.894 9.99243 18.4773 9.70455 16.7955 9.70455H11.25V47.1818H2.24113e-05ZM39.83 47.1818V0.636368H72.2846V9.77273H51.08V19.3182H70.6255V28.4773H51.08V38.0455H72.2846V47.1818H39.83ZM117.024 0.636368V47.1818H107.478L88.9555 20.3182H88.66V47.1818H77.41V0.636368H87.0918L105.41 27.4545H105.796V0.636368H117.024ZM152.723 15.8409C152.465 14.8864 152.087 14.0455 151.587 13.3182C151.087 12.5758 150.473 11.947 149.746 11.4318C149.018 10.9167 148.185 10.5303 147.246 10.2727C146.306 10 145.276 9.86364 144.155 9.86364C141.897 9.86364 139.943 10.4091 138.291 11.5C136.655 12.5909 135.39 14.1818 134.496 16.2727C133.602 18.3485 133.155 20.8712 133.155 23.8409C133.155 26.8258 133.587 29.3712 134.45 31.4773C135.314 33.5833 136.564 35.1894 138.2 36.2955C139.837 37.4015 141.821 37.9546 144.155 37.9546C146.215 37.9546 147.958 37.6212 149.382 36.9546C150.821 36.2727 151.912 35.3106 152.655 34.0682C153.397 32.8258 153.768 31.3636 153.768 29.6818L155.859 29.9318H144.541V21.7273H164.609V27.8864C164.609 32.053 163.723 35.6212 161.95 38.5909C160.193 41.5606 157.768 43.8409 154.678 45.4318C151.602 47.0227 148.064 47.8182 144.064 47.8182C139.624 47.8182 135.723 46.8561 132.359 44.9318C128.996 43.0076 126.374 40.2652 124.496 36.7046C122.617 33.1288 121.678 28.8864 121.678 23.9773C121.678 20.1591 122.246 16.7727 123.382 13.8182C124.518 10.8485 126.102 8.33334 128.132 6.27273C130.178 4.21213 132.541 2.65152 135.223 1.59091C137.92 0.530306 140.821 3.8147e-06 143.928 3.8147e-06C146.624 3.8147e-06 149.132 0.386368 151.45 1.1591C153.784 1.93182 155.844 3.02273 157.632 4.43182C159.435 5.84091 160.897 7.51516 162.018 9.45455C163.14 11.3939 163.837 13.5227 164.109 15.8409H152.723ZM169.32 47.1818V0.636368H201.775V9.77273H180.57V19.3182H200.115V28.4773H180.57V38.0455H201.775V47.1818H169.32ZM206.9 47.1818V0.636368H226.127C229.612 0.636368 232.62 1.26516 235.15 2.52273C237.695 3.76516 239.658 5.55303 241.036 7.88637C242.415 10.2045 243.105 12.9545 243.105 16.1364C243.105 19.3636 242.4 22.1061 240.991 24.3636C239.582 26.6061 237.582 28.3182 234.991 29.5C232.4 30.6667 229.332 31.25 225.786 31.25H213.627V22.3864H223.695C225.392 22.3864 226.809 22.1667 227.945 21.7273C229.097 21.2727 229.968 20.5909 230.559 19.6818C231.15 18.7576 231.445 17.5758 231.445 16.1364C231.445 14.697 231.15 13.5076 230.559 12.5682C229.968 11.6136 229.097 10.9015 227.945 10.4318C226.794 9.94698 225.377 9.70455 223.695 9.70455H218.15V47.1818H206.9ZM233.105 25.9091L244.695 47.1818H232.423L221.059 25.9091H233.105Z" fill="black"/>
</svg>
