<svg width="128" height="128" viewBox="0 0 128 128" fill="none" xmlns="http://www.w3.org/2000/svg">
<path d="M128 64C128 99.3462 99.3462 128 64 128C28.6538 128 0 99.3462 0 64C0 28.6538 28.6538 0 64 0C99.3462 0 128 28.6538 128 64Z" fill="white"/>
<path d="M41.5 101V31.1818H71.6364C76.8182 31.1818 81.3523 32.2045 85.2386 34.25C89.125 36.2955 92.1477 39.1705 94.3068 42.875C96.4659 46.5795 97.5455 50.9091 97.5455 55.8636C97.5455 60.8636 96.4318 65.1932 94.2045 68.8523C92 72.5114 88.8977 75.3295 84.8977 77.3068C80.9205 79.2841 76.2727 80.2727 70.9545 80.2727H52.9545V65.5455H67.1364C69.3636 65.5455 71.2614 65.1591 72.8295 64.3864C74.4205 63.5909 75.6364 62.4659 76.4773 61.0114C77.3409 59.5568 77.7727 57.8409 77.7727 55.8636C77.7727 53.8636 77.3409 52.1591 76.4773 50.75C75.6364 49.3182 74.4205 48.2273 72.8295 47.4773C71.2614 46.7045 69.3636 46.3182 67.1364 46.3182H60.4545V101H41.5Z" fill="black"/>
</svg>
