<svg width="512" height="512" viewBox="0 0 100 100" fill="none" xmlns="http://www.w3.org/2000/svg">
<style>.bg{fill:#fff}.fg{fill:#000}@media(prefers-color-scheme:dark){.bg{fill:#000}.fg{fill:#fff}}</style>
<rect class="bg" width="100" height="100" rx="21"/>
<path class="fg" d="M50.8034 17.6547L50.3842 17.9341L47.3104 26.6666L45.4241 30.7884L42.4201 35.3992L39.9052 38.2634L36.5519 41.2674L32.2904 44.0618L28.7974 45.7385L19.017 49.3014L18.8074 49.9301L19.0868 50.4191L27.6098 53.4231L31.8712 55.3094L35.5738 57.6147L38.9271 60.4092L42.001 63.6926L45.2146 68.4431L47.3104 72.984L50.3144 81.507L50.6637 81.9261H51.3623L51.7814 81.4371L55.0649 72.0758L56.6716 68.6527L59.2565 64.6706L61.5619 61.9461L65.2645 58.5229L69.8054 55.5189L74.4162 53.4231L82.4501 50.6287L83.0788 50.2096L83.1487 49.6507L83.009 49.3014L73.7874 45.9481L70.6437 44.5509L66.5219 42.0359L62.8193 38.962L59.1866 34.8403L56.6716 30.9281L54.5758 26.3173L51.7814 18.2135L51.3623 17.7245L50.8034 17.6547Z"/>
</svg>
