<svg width="512" height="512" viewBox="0 0 100 100" fill="none" xmlns="http://www.w3.org/2000/svg">
<rect width="100" height="100" rx="21" fill="black"/>
<path d="M49.996 18L49.5768 18.2794L46.503 27.012L44.6168 31.1337L41.6128 35.7445L39.0978 38.6088L35.7445 41.6128L31.483 44.4072L27.99 46.0838L18.2096 49.6467L18 50.2754L18.2794 50.7645L26.8024 53.7685L31.0639 55.6547L34.7665 57.9601L38.1198 60.7545L41.1936 64.0379L44.4072 68.7884L46.503 73.3293L49.507 81.8523L49.8563 82.2715H50.5549L50.9741 81.7824L54.2575 72.4212L55.8643 68.998L58.4491 65.016L60.7545 62.2914L64.4571 58.8683L68.998 55.8643L73.6088 53.7685L81.6427 50.9741L82.2715 50.5549L82.3413 49.996L82.2016 49.6467L72.98 46.2934L69.8363 44.8962L65.7146 42.3812L62.012 39.3074L58.3792 35.1856L55.8643 31.2735L53.7685 26.6627L50.9741 18.5589L50.5549 18.0699L49.996 18Z" fill="white"/>
</svg>
